<?xml version="1.0" encoding="utf-8"?>
<!-- Generator: Adobe Illustrator 25.4.1, SVG Export Plug-In . SVG Version: 6.00 Build 0)  -->
<svg version="1.1" id="Layer_1" xmlns="http://www.w3.org/2000/svg" xmlns:xlink="http://www.w3.org/1999/xlink" x="0px" y="0px"
	 viewBox="0 0 174.7 61.3" style="enable-background:new 0 0 174.7 61.3;" xml:space="preserve">
<style type="text/css">
	.st0{fill:#FFFFFF;}
	.st1{fill:#990000;}
</style>
<path class="st0" d="M40.5,5C29.2-1.9,11.4-1.5,0,5v18.1c-0.1,9.7,6.1,18.8,14.6,23c1.9,0.9,3.6,1.6,5.6,2c2-0.5,3.8-1.1,5.6-2
	c8.5-4.2,14.7-13.3,14.6-23L40.5,5z"/>
<g>
	<g>
		<path class="st1" d="M34,39.9L25.4,0.2c-0.4,0-0.7-0.1-1.1-0.1l7.2,42.1C32.4,41.6,33.2,40.7,34,39.9z"/>
		<path class="st1" d="M40.5,24.5L30.6,1.1C30.2,1,29.9,1,29.5,0.9l10.4,27.7C40.2,27.2,40.4,25.9,40.5,24.5z"/>
		<path class="st1" d="M25.9,46.1c0.6-0.3,1.3-0.7,1.9-1l-4.9-45c-0.4,0-0.8,0-1.2,0l3,46.6C25.1,46.5,25.5,46.3,25.9,46.1z"/>
		<path class="st1" d="M38.4,33.1L28,0.6c-0.4-0.1-0.7-0.1-1.1-0.2l9.8,35.7C37.3,35.2,37.9,34.2,38.4,33.1z"/>
		<path class="st1" d="M40.5,5c-2.5-1.5-5.3-2.7-8.3-3.5l8.3,17.4V5z"/>
	</g>
	<g>
		<path class="st1" d="M0,5v18.1c-0.1,9.7,6.1,18.8,14.6,23c1.9,0.9,3.6,1.6,5.6,2V0C13,0.1,5.7,1.8,0,5z M12.5,21.5l1.1,3.5l-3-2.1
			l-3,2.1l1.1-3.5l-2.9-2.1h3.6l1.1-3.5l1.1,3.5h3.6L12.5,21.5z"/>
	</g>
</g>
<g>
	<path d="M51.2,31.7h-0.8l-0.1-7h1c0.7,4,2.7,6,5.8,6c2.6,0,4.1-1.3,4.1-3.4c0-1-0.4-1.8-1.1-2.3c-0.8-0.6-2.2-0.8-3.9-1.3
		c-3.8-1-5.7-2-5.7-5.2c0-3,2-4.9,5.1-4.9c1.8,0,3.3,0.6,4.5,1.7l0.9-1.4h0.9l0.3,6.2h-0.9c-0.9-3.6-2.8-5.4-5.6-5.4
		c-2.1,0-3.3,1.1-3.3,2.9c0,2.3,1.8,2.6,5,3.4c1.7,0.4,3.2,0.8,4.3,1.8c0.9,0.9,1.5,2.2,1.5,3.7c0,3.3-2.1,5.3-6,5.3
		c-1.9,0-3.6-0.7-4.8-1.8L51.2,31.7z"/>
	<path d="M63.2,21.3v-1c2-0.1,3.1-1.8,3.2-5h1v4.9h3.5v1.1h-3.6v6.9c0,1.4,0.3,2,1.4,2c1.3,0,1.9-1.1,2-3.3h0.9c0,0.1,0,0.2,0,0.3
		c0,2.9-1.3,4.4-3.7,4.4c-2.2,0-2.7-1.1-2.7-3.3v-7.2h-2V21.3z"/>
	<path d="M77.7,19.9c3.2,0,5.4,2.4,5.4,6s-2.2,5.9-5.4,5.9c-3.1,0-5.4-2.4-5.4-5.9S74.5,19.9,77.7,19.9z M77.6,30.8
		c2.1,0,3-1.6,3-4.9s-0.8-5-2.9-5s-2.9,1.6-2.9,5C74.7,29.2,75.6,30.8,77.6,30.8z"/>
	<path d="M83.6,30.4h1c0.7,0,0.8-0.2,0.8-0.9v-7.3c0-0.8-0.3-1-1.3-1c-0.2,0-0.5,0-0.7,0v-0.9l4.1-0.3v2.3c1.1-1.6,2.3-2.3,3.9-2.3
		c2.3,0,3.6,1.4,3.6,3.8v5.6c0,0.7,0.1,0.9,0.8,0.9h1v1H91v-1h1c0.6,0,0.8-0.2,0.8-0.9v-5.7c0-1.4-0.8-2.3-2.2-2.3
		c-2,0-3.1,1.3-3.1,4v4c0,0.7,0.1,0.9,0.8,0.9h1v1h-5.8L83.6,30.4L83.6,30.4z"/>
	<path d="M98.1,22.3c-0.2-0.4-0.4-0.6-0.6-0.8c-0.3-0.2-0.7-0.3-1.3-0.3v-1h5.6v1c-0.2,0-0.4,0-0.6,0c-0.7,0-1,0.1-1,0.5
		c0,0.1,0.1,0.4,0.2,0.7l2.5,5.9l2.4-5.8c0-0.1,0.1-0.3,0.1-0.5c0-0.7-0.5-0.8-1.7-0.8v-1h4.6v1c-0.9,0-1.4,0.4-1.8,1.3l-4.1,9.4
		c-1.2,2.9-2.6,4.4-4.7,4.4c-1.4,0-2.2-0.7-2.2-1.8c0-0.8,0.6-1.4,1.4-1.4s1.2,0.5,1.2,1.2c0,0.4-0.2,0.6-0.2,0.7
		c0,0.2,0.1,0.3,0.4,0.3c0.8,0,2-1.3,3-3.8l0.2-0.4L98.1,22.3z"/>
	<path d="M112.8,30.3h1.2c1,0,1.3-0.2,1.3-1.2V16.4c0-0.9-0.3-1.2-1.3-1.2h-1.2v-1.1h9.1c3.4,0,5.2,1.5,5.2,4.2c0,2.1-1.3,3.4-4,4
		c3.3,0.4,4.9,1.9,4.9,4.4c0,2.9-2.3,4.7-6.4,4.7h-8.8C112.8,31.4,112.8,30.3,112.8,30.3z M117.9,21.9h1.9c3.1,0,4.5-0.7,4.5-3.4
		c0-2.4-1.1-3.4-3.7-3.4h-1.5c-1,0-1.2,0.2-1.2,1.1C117.9,16.2,117.9,21.9,117.9,21.9z M117.9,29.1c0,0.9,0.2,1.1,1.3,1.1h1.7
		c2.9,0,4.1-1,4.1-3.6c0-2.7-1.5-3.7-5-3.7h-2.2L117.9,29.1L117.9,29.1z"/>
	<path d="M133.5,30.3h1.5v1h-6.3v-1h1.1c0.7,0,0.8-0.2,0.8-0.9v-7.3c0-0.8-0.3-0.9-1.4-0.9c-0.2,0-0.5,0-0.7,0v-0.9l4.2-0.3v3.4
		c0.7-2.3,2-3.5,3.5-3.5c1.3,0,2.2,0.9,2.2,2c0,0.9-0.6,1.5-1.4,1.5c-0.9,0-1.4-0.6-1.4-1.4c0-0.4,0.2-0.8,0.5-1H136
		c-1.5,0-3.1,2.3-3.1,5.8v2.6C132.7,30.1,132.9,30.3,133.5,30.3z"/>
	<path d="M144,19.9c3.2,0,5.4,2.4,5.4,6s-2.2,5.9-5.4,5.9s-5.4-2.4-5.4-5.9S140.8,19.9,144,19.9z M144,30.8c2.1,0,3-1.6,3-4.9
		s-0.8-5-2.9-5c-2.1,0-2.9,1.6-2.9,5C141.1,29.2,141.9,30.8,144,30.8z"/>
	<path d="M155.8,19.9c3.2,0,5.4,2.4,5.4,6s-2.2,5.9-5.4,5.9c-3.1,0-5.4-2.4-5.4-5.9S152.7,19.9,155.8,19.9z M155.8,30.8
		c2.1,0,3-1.6,3-4.9s-0.8-5-2.9-5c-2.1,0-2.9,1.6-2.9,5C152.9,29.2,153.8,30.8,155.8,30.8z"/>
	<path d="M161.3,30.4h1.1c0.7,0,0.8-0.2,0.8-0.9V15.8c0-0.8-0.3-1-1.3-1c-0.2,0-0.4,0-0.7,0v-0.9l4.2-0.3v11.9l3.7-3.4
		c0.2-0.2,0.3-0.4,0.3-0.5c0-0.3-0.4-0.4-1.2-0.4h-0.8v-0.9h6.1v0.9h-0.1c-1.6,0-2.5,0.7-3.7,1.9l-1.2,1.1l3.8,5
		c0.6,0.8,1.3,1.1,2.4,1.2v1h-6.2v-1h0.7c0.6,0,0.8-0.1,0.8-0.4c0-0.2-0.1-0.3-0.2-0.5l-2.9-3.9l-1.5,1.3v2.5c0,0.7,0.1,0.9,0.8,0.9
		h1.1v1h-6L161.3,30.4L161.3,30.4z"/>
	<path class="st1" d="M57.4,39.1v1.1h-1.2c-1,0-1.3,0.2-1.3,1.2V51c0,3,1.5,4.4,4.8,4.4c2.2,0,3.6-0.8,4.3-2.2
		c0.3-0.7,0.4-1.8,0.4-3.3v-7.6c0-1.5-0.3-2.2-1.7-2.2h-1.1V39h6.6v1.1h-0.9c-1.4,0-1.8,0.6-1.8,2.2V50c0,4.7-1.7,6.8-6.6,6.8
		c-4.3,0-6.6-1.9-6.6-5.8v-9.7c0-0.9-0.3-1.2-1.3-1.2h-1.4V39L57.4,39.1L57.4,39.1z"/>
	<path class="st1" d="M67,55.4h1c0.7,0,0.8-0.2,0.8-0.9v-7.3c0-0.8-0.3-1-1.3-1c-0.2,0-0.5,0-0.7,0v-0.9l4.1-0.3v2.3
		c1.1-1.6,2.3-2.3,3.9-2.3c2.3,0,3.6,1.4,3.6,3.8v5.6c0,0.7,0.1,0.9,0.8,0.9h1v1h-5.8v-1h1c0.6,0,0.8-0.2,0.8-0.9v-5.7
		c0-1.4-0.8-2.3-2.2-2.3c-2,0-3.1,1.3-3.1,4v4c0,0.7,0.1,0.9,0.8,0.9h1v1H67V55.4z"/>
	<path class="st1" d="M80.7,55.4h1.2c0.7,0,0.8-0.2,0.8-0.9v-7.3c0-0.8-0.3-1-1.3-1c-0.2,0-0.4,0-0.7,0v-0.9l4.2-0.3v9.5
		c0,0.7,0.1,0.9,0.8,0.9h1.1v1h-6L80.7,55.4L80.7,55.4z M85.1,40.5c0,0.8-0.6,1.4-1.4,1.4s-1.4-0.7-1.4-1.4c0-0.8,0.6-1.4,1.4-1.4
		C84.5,39,85.1,39.7,85.1,40.5z"/>
	<path class="st1" d="M92.2,56.8L88,47.3c-0.3-0.7-0.6-1-1.6-1c-0.1,0-0.1,0-0.2,0v-1h5.4v1c-1,0-1.4,0.1-1.4,0.6
		c0,0.1,0.1,0.4,0.3,0.8l2.6,6l2.1-5.5c0.1-0.4,0.2-0.7,0.2-1c0-0.5-0.5-0.8-1.3-0.8c-0.1,0-0.2,0-0.3,0v-1h4.7v1
		c-1.1,0-1.6,0.6-2,1.7l-3.6,8.8L92.2,56.8L92.2,56.8z"/>
	<path class="st1" d="M100.7,51.5c0,2.5,1.3,4,3.2,4c1.7,0,2.9-0.9,3.8-2.6l0.8,0.5c-1.1,2.3-2.8,3.4-5.1,3.4c-3,0-5.2-2.3-5.2-5.9
		c0-3.6,2.2-6,5.2-6c3.1,0,5.1,2.1,5.1,5.7c0,0.1,0,0.3,0,0.4h-7.8C100.7,51.2,100.7,51.3,100.7,51.5z M105.2,50
		c0.6,0,0.8-0.1,0.8-0.8c0-2.2-0.9-3.4-2.5-3.4c-1.8,0-2.7,1.4-2.8,4.1h4.5V50z"/>
	<path class="st1" d="M113.9,55.3h1.5v1h-6.3v-1h1.1c0.7,0,0.8-0.2,0.8-0.9v-7.3c0-0.8-0.3-0.9-1.4-0.9c-0.2,0-0.5,0-0.7,0v-0.9
		L113,45v3.4c0.7-2.3,2-3.5,3.5-3.5c1.3,0,2.2,0.9,2.2,2c0,0.9-0.6,1.5-1.4,1.5c-0.9,0-1.4-0.6-1.4-1.4c0-0.4,0.2-0.8,0.5-1h-0.1
		c-1.5,0-3.1,2.3-3.1,5.8v2.6C113.2,55.1,113.3,55.3,113.9,55.3z"/>
	<path class="st1" d="M120.3,52c0.6,2.5,2,3.8,3.9,3.8c1.5,0,2.5-0.8,2.5-2c0-1.3-1-1.5-2.5-1.8c-2.9-0.6-4.7-1.1-4.7-3.8
		c0-2,1.3-3.2,3.3-3.2c1.2,0,2,0.2,3,0.9l0.7-0.8h0.7v4h-0.7c-0.7-2.1-1.9-3.1-3.6-3.1c-1.3,0-2.2,0.7-2.2,1.7c0,1.4,1,1.6,3,2
		c2.8,0.6,4.3,1.2,4.3,3.6c0,2.3-1.5,3.7-4,3.7c-1.1,0-2.1-0.4-3.1-1.2l-0.8,1.1h-0.8V52H120.3z"/>
	<path class="st1" d="M128.9,55.4h1.2c0.7,0,0.8-0.2,0.8-0.9v-7.3c0-0.8-0.3-1-1.3-1c-0.2,0-0.4,0-0.7,0v-0.9l4.2-0.3v9.5
		c0,0.7,0.1,0.9,0.8,0.9h1.1v1h-6v-1H128.9z M133.4,40.5c0,0.8-0.6,1.4-1.4,1.4c-0.8,0-1.4-0.7-1.4-1.4c0-0.8,0.6-1.4,1.4-1.4
		C132.7,39,133.4,39.7,133.4,40.5z"/>
	<path class="st1" d="M134.7,46.3v-1c2-0.1,3.1-1.8,3.2-5h1v4.9h3.5v1.1h-3.6v6.9c0,1.4,0.3,2,1.4,2c1.3,0,1.9-1.1,2-3.3h0.9
		c0,0.1,0,0.2,0,0.3c0,2.9-1.3,4.4-3.7,4.4c-2.2,0-2.7-1.1-2.7-3.3v-7.2h-2V46.3z"/>
	<path class="st1" d="M145,47.3c-0.2-0.4-0.4-0.6-0.6-0.8c-0.3-0.2-0.7-0.3-1.3-0.3v-1h5.6v1c-0.2,0-0.4,0-0.6,0c-0.7,0-1,0.1-1,0.5
		c0,0.1,0.1,0.4,0.2,0.7l2.5,5.9l2.4-5.8c0-0.1,0.1-0.3,0.1-0.5c0-0.7-0.5-0.8-1.7-0.8v-1h4.6v1c-0.9,0-1.4,0.4-1.8,1.3l-4.1,9.4
		c-1.2,2.9-2.6,4.4-4.7,4.4c-1.4,0-2.2-0.7-2.2-1.8c0-0.8,0.6-1.4,1.4-1.4c0.8,0,1.2,0.5,1.2,1.2c0,0.4-0.2,0.6-0.2,0.7
		c0,0.2,0.1,0.3,0.4,0.3c0.8,0,2-1.3,3-3.8l0.2-0.4L145,47.3z"/>
</g>
</svg>
